<svg xmlns="http://www.w3.org/2000/svg" viewBox="0 0 250 250" height="400" width="400"><g transform="matrix(1.25,0,0,1.25,0,0)"><defs></defs><path d="M95.533 46.384C62.043 57.611 33.754 71.058.9 71.756c-.064.634-.127 1.2-.191 1.839a140.812 140.812 0 0 0-.7 15.54c33.744 1.84 61.652-11.48 95.269-22.58 31.207-10.212 67.742-18.4 96.539.888a124.9 124.9 0 0 1 5.962-15.287c.7-1.522 1.459-2.981 2.22-4.44-31.079-21.375-70.658-12.558-104.466-1.332z" fill="#643cff"></path><path d="M95.279 66.491C61.662 77.655 33.754 90.975.01 89.072a137.61 137.61 0 0 0 1.078 15.35c.063.57.19 1.141.254 1.712 33.744 4.06 60.764-8.753 93.684-19.536 29.684-9.578 64.633-17.316 91.654 2.474.381-2.093.761-4.25 1.2-6.343a164.122 164.122 0 0 1 4-15.35c-28.859-19.279-65.394-11.1-96.601-.888z" fill="#9778ff"></path><path d="M95.026 86.6c-32.92 10.783-59.877 23.6-93.684 19.536A122.947 122.947 0 0 0 5.4 123.323c32.539 5.392 58.037-6.533 89.308-16.618 29.177-9.261 63.936-16.809 89.434 6.406.254-4.44.571-8.88 1.015-13.256.38-3.616.824-7.231 1.459-10.783-26.957-19.79-61.906-12.052-91.59-2.472z" fill="#14d29b"></path><path d="M94.772 106.705C63.5 116.79 38 128.715 5.464 123.323c.825 2.728 1.713 5.392 2.538 8.119 1.014 3.108 1.966 6.216 2.981 9.324 30.636 6.153 54.358-4.693 83.535-13.954 28.924-9.007 63.809-16.365 87.6 11.734.825-6.6 1.332-13.256 1.776-19.916l.381-5.519c-25.567-23.211-60.326-15.73-89.503-6.406z" fill="#fdb849"></path><path d="M94.518 126.812c-29.24 9.26-52.9 20.107-83.535 13.954a163.977 163.977 0 0 1 4.44 17.253c29.3 7.294 51.377-2.6 78.905-11.1 27.528-8.436 61.082-15.35 82.838 14.462l1.522-4.948a123.926 123.926 0 0 0 3.552-17.887c-23.913-28.099-58.798-20.804-87.722-11.734z" fill="#ff465a"></path><path d="M94.264 146.855c-27.528 8.563-49.6 18.458-78.9 11.1.127.508.191 1.079.317 1.586a66.692 66.692 0 0 1 .952 14.652c29.558 10.149 50.616.888 77.383-7.294 24.8-7.421 55.056-13.637 74.782 12.812a48.846 48.846 0 0 0 5.138-9.894c1.142-2.791 2.156-5.646 3.108-8.563-21.698-29.685-55.251-22.771-82.78-14.399z" fill="#d70a32"></path><path d="M89.888 115.839c1.459-.761 3.171-.444 4.821-.317a18.446 18.446 0 0 0 8.626-1.522 4.772 4.772 0 0 1-1.9 4.821 10.406 10.406 0 0 1-5.074 1.966 8.656 8.656 0 0 1-2.855.127 4.624 4.624 0 0 1-2.854-1.713 5.717 5.717 0 0 1-.764-3.362z" fill="#dd4040"></path><path d="M71.367 80.826a12.059 12.059 0 0 1 4.82 2.474c2.474 2.22 2.855 5.011 3.362 8.182q1.9 11.418 2.664 23.025c2.284 0 4.757.317 7.294-.254 3.3 3.425 1.967 9.134.064 11.163-6.153 4.06-13.764 4.314-20.8 6.534a7.664 7.664 0 0 1-3.932.444c-2.411-.635-3.489-3.489-3.933-5.9-1.586-9.071.761-18.331 3.362-27.211 1.707-6.342 5.069-12.241 7.099-18.457z" fill="#643cff"></path><path d="M103.779 115.4a32.881 32.881 0 0 1-9.832 2.41c-2.093.063-4.44-.19-6.216.951.7.825.508 2.347.635 3.426.063 1.2.19 2.346.253 3.552a23.851 23.851 0 0 1 6.724-.888c2.41.063 4.82.507 7.1.063 2.347-.444 4.693-2.093 4.947-4.5.258-2.165-1.518-4.195-3.611-5.014z" fill="#dd4040"></path><path d="M72.445 148.441c6.216 7.421 8.309 16.809 10.275 26.26a44.39 44.39 0 0 1-11.48 2.981 57.281 57.281 0 0 1-11.417.253c-.444-2.41-1.079-4.82-1.523-7.167-1.332 2.664-2.854 4.947-4.186 7.611-4.5 1.269-7.04 2.094-11.671 2.03s-10.085-.063-14.144-2.283c-1.649-9.071 1.141-20.678 6.6-28.1 12.048 2.031 25.621 1.074 37.546-1.585z" fill="#ffffff"></path><path d="M72.445 148.441c-11.925 2.664-25.5 3.552-37.55 1.586a34.375 34.375 0 0 0-4.5 8.372 23.636 23.636 0 0 0 3.615 1.079c1.776.444 3.552 1.015 5.328 1.459a59.214 59.214 0 0 0 6.533 1.2 109.28 109.28 0 0 0 13.638.824.409.409 0 0 1 .38.381 36.171 36.171 0 0 1-1.649 7.358c.444 2.41 1.078 4.82 1.522 7.167a52.769 52.769 0 0 0 11.417-.254 44.346 44.346 0 0 0 11.481-2.981c-1.906-9.319-3.999-18.77-10.215-26.191z" fill="#643cff"></path><path d="M127.628 37.568c-1.269 4.313-1.332 9.578-2.791 13.827-1.078 3.045-2.093 6.6-.38 9.324.888 1.4 2.41 2.347 3.678 3.425 4.187 3.679 2.538 14.97 6.787 18.585 2.981 2.537 10.593-1.776 14.335-2.854a14.369 14.369 0 0 0 7.865-6.343 35.945 35.945 0 0 0 3.806-9.578c1.9-6.85 3.235-14.208 1.269-21.058a23.093 23.093 0 0 0-9.9-13.13c-4.06-2.537-11.1-4.884-15.857-3.044-4.562 1.712-7.607 6.786-8.812 10.846z"></path><path d="M134.795 80.509c-3.615 1.713-5.962 2.664-7.484 5.518a20.818 20.818 0 0 0-1.9 6.787 276.52 276.52 0 0 1-5.518 24.864 26.3 26.3 0 0 0-3.933-1.2 18.018 18.018 0 0 1-4-1.966 19.837 19.837 0 0 0-2.918-1.776 9.983 9.983 0 0 0-7.294 0 10.964 10.964 0 0 0-2.848 1.454 5.127 5.127 0 0 0-1.2 1.141c-.444.7 0 .635.634 1.015 2.093 1.2 3.932 2.854 6.089 3.933a34.331 34.331 0 0 0 8.373 2.41c4.5.888 9.007 1.713 13.51 2.537a106.36 106.36 0 0 0 8.489-44.717z" fill="#dd4040"></path><path d="M174.882 94.4c-.951-5.962-6.6-7.865-11.163-11.037a26.388 26.388 0 0 1-10.529-15.1c-.761-2.981-1.079-6.152-2.537-8.816a1.928 1.928 0 0 0-.952-1.079 2.814 2.814 0 0 0-2.03-.126c-3.488.951-4.693 5.01-5.01 8.626s0 7.548-2.347 10.212c-2.22 2.537-5.836 3.3-8.627 4.884-4.123 2.22 1.586 5.772 1.269 10.022a123.172 123.172 0 0 0-.508 13.7c7.739.634 8.754 3.742 15.35 7.675 3.425 2.03 6.6 4.377 10.085 6.343a38.019 38.019 0 0 0 8.436 3.615 82.8 82.8 0 0 0 6.66-13.447c1.586-4.816 2.728-10.272 1.903-15.472z" fill="#e28a42"></path><path d="M145.2 74.293a8.02 8.02 0 0 0 4.313-2.03 35.473 35.473 0 0 0 3.932-3.615 1.864 1.864 0 0 1-.126-.571c-.762-2.981-1.206-5.962-2.6-8.626a1.929 1.929 0 0 0-.951-1.079 2.815 2.815 0 0 0-2.03-.126c-3.489.951-4.694 5.01-5.011 8.626-.19 1.9-.317 3.869-.634 5.708a3.993 3.993 0 0 0 3.107 1.713z"></path><path d="M135.557 80.382c.951.444 1.712 1.078 2.664 1.586.951.444 1.712.951 2.537 1.395.127.127.317.127.444.317a12.407 12.407 0 0 0-.317-1.268 3.381 3.381 0 0 0-.318-1.269c-1.078-.634-2.029-1.078-3.171-1.712-.571.317-1.205.634-1.839.951zm10.402 4.06a129.979 129.979 0 0 1 17.316-1.269 14.951 14.951 0 0 1-2.664-2.22c-3.489.317-6.914.444-10.4.951a15.82 15.82 0 0 0-2.982.318 3.767 3.767 0 0 0-.761 1.268c-.192.381-.382.698-.509.952z" fill="#dd4040"></path><path d="M130.99 60.656c4.567 11.417 16.745 11.48 23.6 3.932 4.567-5.01 6.343-8.5 6.026-14.588-.064-1.713.571-3.3.507-5.011-.38-7.421-.19-15.286-8.055-18.775-6.724-2.918-18.521-3.869-22.644 3.869-2.918 5.455-3.172 13.193-2.22 19.092a54.182 54.182 0 0 0 2.786 11.481z" fill="#e28a42"></path><path d="M153.063 46.131a6.248 6.248 0 0 0-5.392-1.713 6.343 6.343 0 0 0-4.5 3.425s1.522 1.015 4.757.508a9.7 9.7 0 0 0 5.135-2.22zm-15.033 2.283a6.141 6.141 0 0 0-9.958-.951s1.2 1.395 4.44 1.776a9.212 9.212 0 0 0 5.518-.825z" fill="#ffffff"></path><path d="M148.115 47.209a8.63 8.63 0 0 1-.317-1.839 5.5 5.5 0 0 1-.063-1.015 6.342 6.342 0 0 0-4.5 3.425s1.523 1.015 4.758.507a1.831 1.831 0 0 0 .57-.127 3.309 3.309 0 0 1-.448-.951zm-14.778.761a4.591 4.591 0 0 1-.254-1.586 4.849 4.849 0 0 1 .127-.951 6.125 6.125 0 0 0-5.075 2.093s1.206 1.4 4.44 1.776a10.669 10.669 0 0 0 1.4.064 9.261 9.261 0 0 1-.638-1.396z"></path><path d="M139.806 54.884a28.92 28.92 0 0 0-.824-9.07c.19 3.108-.888 6.6-3.235 8.436a7.437 7.437 0 0 0 4.059.634zm-2.727 4.503a4.708 4.708 0 0 0 1.776 3.489 3.7 3.7 0 0 0 3.362-.064c1.9-.888 3.171-2.664 4.376-4.376a18.672 18.672 0 0 1-9.514.951z" fill="#dd4040"></path><path d="M147.037 58.246a17.874 17.874 0 0 1-5.518-.381c-.761-.19-1.459-.381-2.22-.507a3.769 3.769 0 0 0-2.22.38 2.1 2.1 0 0 0-1.015 1.9 10.581 10.581 0 0 0 10.973-1.392zm8.309-14.146a13.015 13.015 0 0 1-2.41 2.157 6.154 6.154 0 0 0-5.328-1.332 7.666 7.666 0 0 0-4.567 3.108 6.271 6.271 0 0 1 4-3.806 6.707 6.707 0 0 1 5.582.824 9.235 9.235 0 0 0 2.723-.951zm-17.189 4.5a6.478 6.478 0 0 0-4.82-2.981 6.069 6.069 0 0 0-5.138 2.093 2.179 2.179 0 0 1-2.03-1.776 1.351 1.351 0 0 0 1.776.635c2.093-1.142 3.806-1.967 5.836-1.713a5.177 5.177 0 0 1 4.376 3.742zm15.73-6.338a8.39 8.39 0 0 0-1.332-1.206c-1.205-.951-2.79-.7-4.186-.38a40.516 40.516 0 0 0-3.932 1.268 4.035 4.035 0 0 1-1.523.254 2.544 2.544 0 0 1-1.459-1.459 24.916 24.916 0 0 1 8.5-2.283 4.521 4.521 0 0 1 1.839.888 6.071 6.071 0 0 1 2.093 2.918zm-26.259 2.029a7.726 7.726 0 0 1 1.2-1.776 2 2 0 0 1 2.157-.634l2.664.761a3.319 3.319 0 0 0 1.585.19 1.852 1.852 0 0 0 1.523-1.9 35.093 35.093 0 0 0-5.772-.762 2.35 2.35 0 0 0-1.967.825 6.1 6.1 0 0 0-1.39 3.296z"></path><path d="M132.893 91.99c-2.982 1.585-6.09 3.234-8.31 5.835-2.22 2.537-3.488 6.279-2.22 9.451a13.306 13.306 0 0 0 4.123 4.884c-1.078 6.279-.571 11.861-.317 18.2-6.279 6.343-13.637 13.954-18.775 21.248a74.212 74.212 0 0 0-11.544 23.98c11.227-3.425 23.405-1.9 35.076-.317S154.458 178.76 166 176.6a46.767 46.767 0 0 0 .191-5.962 151.2 151.2 0 0 0-8.183-35.9c3.489-4.63 6.724-9.006 10.212-13.637-2.981-2.727-3.805-7.1-4.44-11.1-.571-4-1.205-8.245-3.869-11.227-6.85-7.8-17-.253-22.136 5.455.065-4.629-2.662-9.575-4.882-12.239z" fill="#ffffff"></path><path d="M109.17 123.133c6.089 2.03 9.071 4.5 14.145 7.485a100.9 100.9 0 0 0 14.208 6.85c3.044 1.142 7.992 2.6 11.227 1.966 12.559-10.846 18.14-21.122 23.151-34.378a21.712 21.712 0 0 0 1.776-9.388c-.254-3.171-1.776-6.406-4.63-7.992-2.22-1.2-4.948-1.268-7.1-2.664-.761 2.474-.952 9.642-.825 11.227.635 6.6-3.235 13.511-6.787 18.458a108.756 108.756 0 0 0-8.182 13.193c-1.776-1.2-4.123-1.268-6.216-1.522a92.921 92.921 0 0 1-27.084-7.168c-1.649-.7-2.727-2.6-4.059-3.805a8.379 8.379 0 0 0-2.284-1.649 6.351 6.351 0 0 0-4.059-.191 25.5 25.5 0 0 0-3.679 1.332c-1.9.825-3.869 1.713-5.772 2.537-.19 2.03 1.015 3.362 3.045 4.06 1.141.38 3.869.444 5.581 1.332 1.774 1.015 5.768 1.268 7.544.317z" fill="#e28a42"></path><path d="M101.369 115.4a8.864 8.864 0 0 1 2.6.253 2.67 2.67 0 0 0-1.839-1.2 6.816 6.816 0 0 0-3.172.7c-1.078.444-2.093.951-3.108 1.459-.951.444-1.9.888-2.854 1.4v.317c1.839-.57 3.552-1.458 5.391-2.156.952-.273 1.967-.588 2.982-.773zm-3.045 2.849a8.9 8.9 0 0 1 4.25-.444l-.064-.063a3.815 3.815 0 0 0-1.4-.381 8.63 8.63 0 0 0-2.855 0c-1.776.381-3.361 1.269-5.074 1.586a2.668 2.668 0 0 0 .254.634 8.808 8.808 0 0 0 2.22-.571 18.341 18.341 0 0 1 2.669-.761zm3.996 1.776a3.153 3.153 0 0 0-.825-.254 6.486 6.486 0 0 0-2.917 0c-1.4.254-2.855.825-4.25.952a5.481 5.481 0 0 0 1.015.634 17.576 17.576 0 0 1 3.932-1.2 12.3 12.3 0 0 1 3.045-.132zm44.78 17.443a2.414 2.414 0 0 0-.888 1.205c-.064.254-.127.507-.191.825a12.727 12.727 0 0 0 2.728-.127c.507-.444 1.015-.888 1.459-1.332-.887-.439-2.156-1.079-3.108-.571z" fill="#dd4040"></path><path d="M155.663 69.028a2.111 2.111 0 0 0-.888.064 2.581 2.581 0 0 0-1.649 1.268 2.846 2.846 0 0 0-.253 1.269 1.765 1.765 0 0 0-.571.063 2.583 2.583 0 0 0-1.649 1.269 2.48 2.48 0 0 0-.253 1.139 4.333 4.333 0 0 0-.508-.191 2.111 2.111 0 0 0-.888.064 2.581 2.581 0 0 0-1.649 1.268 1.279 1.279 0 0 0-.19.7 1.8 1.8 0 0 0-1.078-.7 2.109 2.109 0 0 0-.888.064 3.154 3.154 0 0 0-1.4.824 2.127 2.127 0 0 0-1.522-1.649h-.254a2.428 2.428 0 0 0-1.585-2.664 2.108 2.108 0 0 0-.888.064 2.582 2.582 0 0 0-1.65 1.268 2.366 2.366 0 0 0 .7 2.918 1.518 1.518 0 0 0 .888.317 2.191 2.191 0 0 0 3.806 1.9 2.416 2.416 0 0 0 .824 1.142 2.333 2.333 0 0 0 2.982-.381 2.046 2.046 0 0 0 .444-1.268l.38.38a2.332 2.332 0 0 0 2.981-.38 2.512 2.512 0 0 0 .444-1.84 2.3 2.3 0 0 0 2.791-.444 2.51 2.51 0 0 0 .444-1.839 2.233 2.233 0 0 0 1.966-.761c1.207-1.2.636-3.546-.887-3.864z" fill="#ffffff"></path><path d="M163.846 43.974c-.191-9.895-2.728-15.413-8.119-18.267-6.914-3.679-16.3-4.567-22.961-.254-4.123 2.664-6.914 7.1-8.5 11.734-1.585 4.694-2.029 9.641-2.347 14.525-.824 11.544-1.078 23.215 1.586 34.442a12.341 12.341 0 0 0 1.776 4.44 9.306 9.306 0 0 0 5.772 3.362 32.754 32.754 0 0 0 7.485.38c-2.728-1.2-4.25-4.313-4.44-7.294-.254-2.981.571-5.962 1.2-8.88s1.142-6.026.254-8.88a32.2 32.2 0 0 1-7.992-13.13c-1.586-4.757 1.712-3.869 3.488-8.562.952-2.538-.063-11.544 2.284-12.94 2.283-1.395 4.947.064 7.484.064 4.186 0 6.914-1.84 11.481-2.22 2.093-.191 3.932.444 4.567 2.537.7 2.283 1.458 4.5 2.156 6.787a24.673 24.673 0 0 1 .761 2.917c.064.444.761 2.981.444 3.3.317-.254 3.045.761 3.425.57-.058-.825.259-3.805.196-4.631z"></path><path d="M161.055 44.228a3.575 3.575 0 0 1 3.3-1.713A2.271 2.271 0 0 1 166 43.784a4.909 4.909 0 0 1 .444 1.9 12.238 12.238 0 0 1-1.078 5.391 8.12 8.12 0 0 1-1.459 2.157 3.839 3.839 0 0 1-2.537 1.078 2.051 2.051 0 0 1-1.078-.19c-3.292-1.646-.569-8.053.763-9.892z" fill="#e28a42"></path><path d="M164.1 44.291a8.351 8.351 0 0 0-2.346 2.6 8.918 8.918 0 0 0-1.269 5.264 4.681 4.681 0 0 1 3.552-1.585 2.927 2.927 0 0 1-.951-1.015 3.143 3.143 0 0 1-.318-2.157 7.864 7.864 0 0 1 1.332-3.107z" fill="#dd4040"></path><path d="M158.9 42.515a10.874 10.874 0 0 0-1.776 4.123 4.33 4.33 0 0 0 .064 2.537 1.987 1.987 0 0 0 3.742.254 4.4 4.4 0 0 0 .507-2.22 10.607 10.607 0 0 0-.38-3.171 11.343 11.343 0 0 0 2.6 2.917c1.142 1.015 3.235 1.776 4.5.571a1.527 1.527 0 0 0 .444-.761c.254-1.078-.888-2.41-1.586-3.171a15.148 15.148 0 0 0-1.395-1.459 4.863 4.863 0 0 0-1.459-1.079 7.884 7.884 0 0 0 5.264-.317 2 2 0 0 0 1.206-1.459 1.733 1.733 0 0 0-.508-1.2 4.709 4.709 0 0 0-3.108-1.268 14.437 14.437 0 0 0-3.615.634 7.315 7.315 0 0 0 2.093-2.918 2.746 2.746 0 0 0-.888-3.108 2.153 2.153 0 0 0-1.649-.253 4.23 4.23 0 0 0-2.6 2.6 12.068 12.068 0 0 0-.824 4.25c-.571-.952-2.347-1.649-3.426-1.84-1.205-.126-2.029-.126-2.664.888a2.593 2.593 0 0 0 .127 2.538 6.347 6.347 0 0 0 1.84 1.839 5.1 5.1 0 0 0 3.491 1.073z" fill="#ffffff"></path><path d="M160.1 41.183a14.3 14.3 0 0 0-1.205 2.855 3.544 3.544 0 0 0-.19 1.4c.063.317.254.634.507.571a.482.482 0 0 0 .254-.127 2.542 2.542 0 0 0 .825-1.142 9.375 9.375 0 0 0 .824-3.171 8.784 8.784 0 0 0 3.172 3.615 2.654 2.654 0 0 0 .951.254.424.424 0 0 0 .444-.254.4.4 0 0 0 0-.38 4.755 4.755 0 0 0-1.776-2.664 23.649 23.649 0 0 0-1.966-1.586 10.914 10.914 0 0 0 3.425-.888 2.061 2.061 0 0 0 1.015-.761.811.811 0 0 0 .063-.381c-.063-.19-.19-.253-.38-.317a1.377 1.377 0 0 0-.508 0 13.18 13.18 0 0 0-3.805 1.142 9.518 9.518 0 0 0 1.205-3.869c0-.317 0-.635-.254-.825a.583.583 0 0 0-.634.064 2.86 2.86 0 0 0-.444.444 7.513 7.513 0 0 0-1.205 3.869 6.131 6.131 0 0 0-3.933-1.015c-.317 0-.761.127-.825.444-.063.254.127.507.254.761a5.1 5.1 0 0 0 4.186 1.961z" fill="#ff465a"></path><path d="M162.514 59.7a1.2 1.2 0 0 0-.7-.761c0-1.585-.063-3.108-.127-4.693a1.168 1.168 0 0 0 .825-1.459 1.031 1.031 0 0 0-.761-.761h-.444a1.342 1.342 0 0 0-.825.634 1.183 1.183 0 0 0 .381 1.459.485.485 0 0 0 .317.127c.063 1.585.063 3.171.127 4.693a1.733 1.733 0 0 0-.762.571 1.184 1.184 0 0 0 .381 1.459l.381.19v1.015a1.274 1.274 0 0 0-.7.571 1.183 1.183 0 0 0 .38 1.459 1.117 1.117 0 0 0 1.65-1.332 1.063 1.063 0 0 0-.7-.761v-.952a1.3 1.3 0 0 0 .577-1.459z" fill="#ffffff"></path><path d="M70.542 60.339a4.32 4.32 0 0 1-2.727-7.612l1.078 1.142a2.821 2.821 0 0 0-.7 3.425 2.658 2.658 0 0 0 2.6 1.459 2.97 2.97 0 0 0 2.664-2.537 3.475 3.475 0 0 0-.7-2.474 2.926 2.926 0 0 0-2.03-.951l.127-1.523a4.154 4.154 0 0 1 3.108 1.459 4.844 4.844 0 0 1 1.079 3.616 4.522 4.522 0 0 1-4.06 3.932.934.934 0 0 1-.439.064z" fill="#fdb849"></path><path d="M38.828 45.623a51.74 51.74 0 0 1-.952-13.256 9.155 9.155 0 0 1 1.142-4.5c.888-1.332 2.6-2.22 4.06-1.585a11.939 11.939 0 0 1 4.059-4.821c3.235-2.157 7.421-2.22 11.163-1.332s7.3 2.6 10.974 3.742c2.283.7 4.947 1.142 6.913-.19a11.687 11.687 0 0 1-6.977 10.842 15.528 15.528 0 0 1-4.186 1.015 38.338 38.338 0 0 1-10.783 0 18.382 18.382 0 0 0-5.582-.317 10.1 10.1 0 0 0-6.089 3.933 29.684 29.684 0 0 0-3.742 6.469z"></path><path d="M25.635 93.575c.951-5.962 6.6-7.865 11.163-10.973a26.388 26.388 0 0 0 10.529-15.1c.761-2.981 1.079-6.152 2.537-8.816a1.925 1.925 0 0 1 .952-1.079 2.819 2.819 0 0 1 2.03-.127c3.488.952 4.693 5.011 5.01 8.627s0 7.548 2.347 10.212c2.22 2.537 5.836 3.3 8.627 4.884 4.059 2.22-1.586 5.772-1.269 10.021a122.958 122.958 0 0 1 .507 13.7c-7.674.634-8.753 3.742-15.349 7.675-3.425 2.03-6.6 4.376-10.022 6.343a36.778 36.778 0 0 1-8.436 3.615 84.894 84.894 0 0 1-6.66-13.383c-1.649-4.943-2.791-10.398-1.966-15.599z" fill="#e28a42"></path><path d="M49.547 69.092c1.4 1.839 3.743 4 6.216 3.362a5.905 5.905 0 0 0 2.411-1.269c-.191-1.649-.254-3.425-.381-5.138-.317-3.615-1.586-7.675-5.011-8.626a3.7 3.7 0 0 0-2.03.127 2.557 2.557 0 0 0-.951 1.078c-1.269 2.347-1.649 5.138-2.283 7.8a26.761 26.761 0 0 1 2.029 2.666z"></path><path d="M64.9 79.558c-.951.444-1.713 1.078-2.664 1.585-.951.444-1.713.952-2.537 1.4-.127.127-.317.127-.444.317a12.487 12.487 0 0 1 .317-1.269 3.388 3.388 0 0 1 .317-1.268c1.078-.635 2.03-1.079 3.172-1.713.631.313 1.202.63 1.839.948zM54.558 83.68a130.147 130.147 0 0 0-17.316-1.268 14.993 14.993 0 0 0 2.664-2.22c3.489.317 6.914.444 10.4.951a15.9 15.9 0 0 1 2.982.317 3.771 3.771 0 0 1 .761 1.269c.192.317.319.634.509.951z" fill="#dd4040"></path><path d="M69.464 59.831c-4.567 11.417-16.745 11.481-23.6 3.933-4.566-5.011-6.342-8.5-6.025-14.589.063-1.712-.571-3.3-.508-5.011.381-7.357.191-15.286 8.056-18.711 6.66-2.918 18.521-3.869 22.58 3.869 2.918 5.455 3.172 13.193 2.22 19.092a46.814 46.814 0 0 1-2.723 11.417z" fill="#e28a42"></path><path d="M39.4 49.239c.444-.064.888-.127 1.268-.191a9.688 9.688 0 0 1 .7-4.249 15.357 15.357 0 0 1 2.854-3.806 21.324 21.324 0 0 0 3.045-3.679 17.779 17.779 0 0 0 1.9-5.011c.063-.253 4.63.952 5.011 1.079a23.945 23.945 0 0 0 9.26.317 25.8 25.8 0 0 0 8.69-2.474c-2.791-10.4-18.077-9.134-24.991-6.153-8.119 3.552-7.929 11.735-8.309 19.41-.064 1.585.507 3.171.572 4.757z"></path><path d="M47.454 45.37a6.181 6.181 0 0 1 5.328-1.713 6.342 6.342 0 0 1 4.5 3.425s-1.523 1.015-4.758.508a9.9 9.9 0 0 1-5.07-2.22zm14.969 2.283a6.14 6.14 0 0 1 9.959-.951s-1.206 1.4-4.44 1.776a10.213 10.213 0 0 1-5.519-.825z" fill="#ffffff"></path><path d="M52.4 46.448a8.628 8.628 0 0 0 .317-1.84 5.483 5.483 0 0 0 .063-1.014 6.117 6.117 0 0 1 4.44 3.425s-1.522 1.015-4.757.507a1.837 1.837 0 0 1-.571-.127 3.368 3.368 0 0 0 .508-.951zm14.717.761a4.614 4.614 0 0 0 .254-1.586 4.925 4.925 0 0 0-.127-.951 6.121 6.121 0 0 1 5.074 2.093s-1.2 1.395-4.44 1.776a10.814 10.814 0 0 1-1.395.063 6.84 6.84 0 0 0 .634-1.395z"></path><path d="M62.55 58.5a3.283 3.283 0 0 1-1.776 2.6 4.729 4.729 0 0 1-3.362-.064A10.77 10.77 0 0 1 53.1 57.8a26.18 26.18 0 0 0 9.45.7z" fill="#dd4040"></path><path d="M52.592 57.611a22.87 22.87 0 0 0 5.518-.317c.761-.127 1.459-.317 2.22-.38a4.414 4.414 0 0 1 2.22.317 1.516 1.516 0 0 1 1.015 1.395 13.492 13.492 0 0 1-10.973-1.015z"></path><path d="M39.462 43.467a3.573 3.573 0 0 0-3.3-1.713 2.269 2.269 0 0 0-1.649 1.269 4.909 4.909 0 0 0-.444 1.9 12.241 12.241 0 0 0 1.078 5.391 8.12 8.12 0 0 0 1.459 2.157 3.839 3.839 0 0 0 2.537 1.078 2.051 2.051 0 0 0 1.078-.19c3.301-1.647.573-8.053-.759-9.892z" fill="#e28a42"></path><path d="M36.418 43.53a8.351 8.351 0 0 1 2.346 2.6 8.918 8.918 0 0 1 1.269 5.27 4.678 4.678 0 0 0-3.552-1.585 2.927 2.927 0 0 0 .951-1.015 3.144 3.144 0 0 0 .318-2.157 8.9 8.9 0 0 0-1.332-3.113z" fill="#dd4040"></path><path d="M56.968 36.934a3.2 3.2 0 0 1-1.9 3.552 4.975 4.975 0 0 1-2.347.253c-2.03-.063-4.123-.317-5.9.635a11.94 11.94 0 0 1 10.147-4.44zm15.414 5.391a7.088 7.088 0 0 0-3.489-.825 5.887 5.887 0 0 1-3.493-1.141 3.136 3.136 0 0 1-.888-3.172 12.036 12.036 0 0 1 4.948.7 4.018 4.018 0 0 1 1.966 1.4 5.531 5.531 0 0 1 .444 1.079c.194.627.321 1.261.512 1.959z"></path><path d="M64.643 52.981a6.092 6.092 0 0 1-3.108-3.3 5.848 5.848 0 0 1 .254-4.5 12.84 12.84 0 0 0-1.839 7.612 7.013 7.013 0 0 0 4.693.188z" fill="#dd4040"></path><path d="M38.384 60.339a4.32 4.32 0 0 1-2.728-7.612l1.079 1.142a2.819 2.819 0 0 0-.7 3.425 2.6 2.6 0 0 0 2.6 1.459 2.97 2.97 0 0 0 2.665-2.537 3.475 3.475 0 0 0-.7-2.474 2.928 2.928 0 0 0-2.03-.951l.127-1.523a4.156 4.156 0 0 1 3.108 1.459 4.839 4.839 0 0 1 1.078 3.616 4.52 4.52 0 0 1-4.059 3.932 1.071 1.071 0 0 1-.44.064zM36.291 43.72a3.141 3.141 0 0 0-.317-1.522 1.117 1.117 0 0 0-1.079-.634.916.916 0 0 0-.634.444 1.389 1.389 0 0 0-.063.888l-.762.254a2.1 2.1 0 0 1 .064-1.523 1.667 1.667 0 0 1 1.268-.888 1.948 1.948 0 0 1 1.84 1.015 3.634 3.634 0 0 1 .444 1.9zm.19 2.728h-.761a2.274 2.274 0 0 0-1.2-2.03c-.127-.063-.191-.063-.317-.127a.639.639 0 0 0-.7.381.587.587 0 0 0 .19.761l-.51.567a1.413 1.413 0 0 1 1.2-2.474 2.691 2.691 0 0 1 .507.19 2.931 2.931 0 0 1 1.591 2.732z" fill="#fdb849"></path><path d="M79.105 151.8c-13.447 10.148-36.281 9.578-50.806 3.425 3.552-5.9 7.231-12.178 10.719-18.077-6.66-10.529-13.51-21.312-15.54-33.617-.7-4.06-.761-8.373 1.2-11.988 3.933-7.231 13.955-9.515 17.126-17.126 4.5 1.712 8.5 5.772 11.29 9.768A74.737 74.737 0 0 1 59.823 97a55.236 55.236 0 0 1 4.186-20.487 12.931 12.931 0 0 0 7.291 4.313 25.07 25.07 0 0 0 1.079 15.1c.7 1.649 1.776 3.362 2.346 5.074.7 2.157.381 5.392-.444 8.436-2.283 8.373-2.854 14.906-4.5 23.469 3.171 6.279 6.153 12.622 9.324 18.9" fill="#ffffff"></path><path d="M48.152 88.438c.254.063.317.317.254.57-.318.7-.571 1.4-.888 2.094 2.79-.635 5.391 1.268 7.294 3.171a24.931 24.931 0 0 1 6.152 11.544c.064-.888.191-1.839.318-2.727a33.278 33.278 0 0 1 2.093-7.739c.7-1.712 1.776-3.679 3.552-4.567a8.313 8.313 0 0 1-1.776-1.9.386.386 0 0 1 .253-.571c.762-.254 1.586-.381 2.347-.7a16.686 16.686 0 0 1-1.651-9.261c-.634-.507-1.332-1.649-2.093-2.41a55.651 55.651 0 0 0-4.25 20.551 67.363 67.363 0 0 0-6.6-12.3c-2.791-3.933-6.787-8.373-11.291-10.085a16.747 16.747 0 0 1-1.141 2.41c2.727 3.045 3.615 7.611 3.805 11.607a10.134 10.134 0 0 1 3.622.313z" fill="#fb9157"></path><path d="M62.106 132.838a19.1 19.1 0 0 1-10.91-2.094 29.149 29.149 0 0 1-8.055-6.66 61.762 61.762 0 0 1-6.914-9.26c-1.078-1.84-2.029-3.742-3.235-5.518a35.684 35.684 0 0 1-2.727-4.123c-1.078.761-1.332 1.078-2.41 1.839 3.044 8.436 10.212 19.409 12.432 22.073 2.537 2.981 8.055 9.705 11.29 10.339 3.806.7 16.555-2.03 19.917-3.108-.571-1.142-1.142-2.22-1.713-3.362.127-.57.19-1.141.317-1.712a68.7 68.7 0 0 1-7.992 1.586z" fill="#643cff"></path><path d="M91.474 127.319a14.448 14.448 0 0 0-4.567-11.419 11.734 11.734 0 0 1-4.631 1.776c-8.626 1.649-17.316 3.3-26.132 2.981a124.6 124.6 0 0 0-11.354-23.4 19.982 19.982 0 0 0-3.869-5.011 12.022 12.022 0 0 0-4.757-2.6 7.385 7.385 0 0 0-4.821.063 7.319 7.319 0 0 0-3.8 4.313c-1.967 4.948-.127 10.593 2.156 15.413a80.524 80.524 0 0 0 20.932 27.211 3.721 3.721 0 0 0 2.283.825c13.315.129 26.128-5.204 38.56-10.152z" fill="#ffffff"></path><path d="m47.835 44.608-1.269-2.22 2.157 1.459-.888.761zm1.522-.951-.634-2.537 1.649 2.156-1.015.381zm20.995.951 1.839-1.776-.888 2.284-.951-.508zm1.459 1.015 1.903-1.776-1.142 2.537-.761-.761z"></path><path d="M34.388 89.96a6.331 6.331 0 0 1 4.947 1.776 17.043 17.043 0 0 1 3.235 4.376 276.057 276.057 0 0 1 12.5 24.864 1.732 1.732 0 0 1 1.9-1.2c.825.191.825.952.825 1.776a2.35 2.35 0 0 1 .7-.317 1.133 1.133 0 0 1 1.4.571 3.005 3.005 0 0 1 .19.444c2.347-.317 4.694-.634 7.041-.888a49.851 49.851 0 0 0-6.153-.254c-.126-.507-.253-.888-.824-1.078a1.4 1.4 0 0 0-1.586.317 1.538 1.538 0 0 0-1.205-1.776 2.2 2.2 0 0 0-1.9.7 119.133 119.133 0 0 0-14.03-26.52 8.944 8.944 0 0 0-2.537-2.351 4.116 4.116 0 0 0-4.503-.44z" fill="#fb9157"></path></g></svg>