<svg xmlns="http://www.w3.org/2000/svg" viewBox="0 0 250 250" height="400" width="400"><g transform="matrix(1.25,0,0,1.25,0,0)"><defs></defs><path d="M40.6 116.431c0-1.061-5.04-.995-11.6-.995s-12.134 1.526-12.134 2.587 5.3 1.923 11.869 1.923 11.865-2.454 11.865-3.515z"></path><path d="M25.212 94.35c0-.067-.067-.133-.067-.2-.464-1.459.465-1.658 1.658-1.127 1.061.464 2.321 2.122 3.448 1.856 1.658-.4.6-2.321-.132-3.116-1.26-1.525-2.52-2.918-3.647-4.509-.73-1.061-1.393-2.52-.531-3.449 1-1.06 2.785-.2 3.78.8.994 1.061 2.254 2.321 3.647 1.923 1.193-1.79 0-4.177-1.525-5.636-1.525-1.525-3.448-2.785-4.112-4.775-.464-1.392.133-3.315 1.592-3.514a2.7 2.7 0 0 1 2.453 1.724 11.621 11.621 0 0 0 1.459 2.851c.663.8 2.056 1.26 2.852.531a2.047 2.047 0 0 0 .464-1.724 7.644 7.644 0 0 0-2.387-4.185 10.38 10.38 0 0 1-2.719-4.045c-.464-1.591.2-3.58 1.724-4.045a3.123 3.123 0 0 1 3.581 2.19c.464 1.326.53 3.249 1.923 3.514 1.326.265 2.188-1.326 2.254-2.652.133-2.387-.928-4.708-1.193-7.095s.53-5.3 2.785-5.968c1.923-.6 4.111.8 4.907 2.652a8.429 8.429 0 0 1-.133 5.968c-.663 1.923-1.591 3.78-2.188 5.7a1.606 1.606 0 0 0 .066 1.458c.464.6 1.525.332 2.056-.265s.8-1.392 1.392-1.856c1.26-.995 3.316.066 3.714 1.657a4.409 4.409 0 0 1-1.725 4.244 23.211 23.211 0 0 1-4.108 2.46c-.994.53-2.718 1.458-3.183 2.586-.928 2.254 3.183-.067 3.647-.4 1.128-.862 2.918-1.525 3.846-.4a2.068 2.068 0 0 1 .133 2.056c-1.459 3.912-7.957 3.912-9.416 7.824 1.127.531 2.453-.2 3.514-.862s2.587-1.127 3.515-.265c1.79 1.724-.464 3.912-1.923 4.907-1.989 1.326-5.172 1-6.565 2.918a1.188 1.188 0 0 0 .2 1.856 2.022 2.022 0 0 0 1.525.133c1.592-.265 3.448-.332 3.382 1.923 0 1.525-1.26 2.586-2.387 3.448-2.454 1.857-7.692 5.305-10.941 3.78-3.447-1.921-5.574-7.357-6.635-10.871z" fill="#ff465a"></path><path d="M32.042 123.128c-2.255-13 1.525-25.131 5.172-36.868 2.917-9.482 5.968-19.3 5.835-29.508h.73c.2 10.344-2.918 20.158-5.836 29.707C34.3 98.13 30.583 110.132 32.837 123z" fill="#ffffff"></path><path d="M12.546 107.877a.9.9 0 0 0-.265-.2c-1.525-1.392-.53-2.254 1.127-2.453 1.526-.2 4.112.862 5.305-.2 1.724-1.592-.928-3.051-2.321-3.581-2.453-.928-4.907-1.658-7.36-2.719-1.525-.724-3.316-1.987-2.984-3.645.4-1.923 3.05-2.122 4.973-1.658s4.244 1.128 5.57-.331c.133-2.851-2.851-4.841-5.636-5.57s-5.9-.862-8.024-2.719C1.406 83.475.809 80.823 2.4 79.629c1.194-.862 2.851-.4 4.111.331a19.247 19.247 0 0 0 3.647 2.388c1.393.464 3.249.066 3.647-1.327a2.969 2.969 0 0 0-.663-2.387c-1.326-1.79-3.514-2.586-5.636-3.249s-4.31-1.26-5.9-2.785-2.254-4.31-.8-5.968c1.393-1.525 4.112-1.26 5.7.133 1.459 1.26 2.852 3.382 4.642 2.785 1.724-.6 1.658-3.051.8-4.642-1.526-2.851-4.244-4.841-6.234-7.427s-2.984-6.5-.862-8.885c1.857-2.056 5.305-1.923 7.493-.266a11.948 11.948 0 0 1 3.979 7.029c.6 2.653.73 5.438 1.326 8.157a2.076 2.076 0 0 0 1.061 1.657c.995.4 1.99-.663 2.188-1.724a22.376 22.376 0 0 1 .332-3.116c.8-1.99 3.912-2.189 5.437-.663s1.592 4.044.929 6.1a28.059 28.059 0 0 1-3.117 5.7c-.795 1.326-2.188 3.581-1.923 5.238.464 3.316 3.647-2.254 3.979-2.984.729-1.79 2.387-3.779 4.177-3.05A2.883 2.883 0 0 1 32.307 73c.995 5.57-6.565 9.946-5.637 15.516 1.658-.132 2.653-1.923 3.515-3.381.8-1.459 2.254-3.117 3.846-2.719 3.249.8 2.188 4.907 1.194 7.029-1.393 2.851-5.3 4.642-5.7 7.891a1.661 1.661 0 0 0 1.525 2.055 3.02 3.02 0 0 0 1.857-.862c1.657-1.392 3.779-2.718 5.3-.132 1 1.79.266 3.912-.464 5.636-1.591 3.846-5.3 11.472-10.211 11.87-5.039.263-11.272-4.71-14.986-8.026z" fill="#fdb849"></path><path d="M29.787 126.51a71.021 71.021 0 0 0-2.719-10.61c-.8-2.586-1.657-5.239-2.254-7.891-.73-3.249-1.592-6.565-2.454-9.748a220.43 220.43 0 0 1-2.387-9.548l-.2-.928c-2.718-12.267-5.5-25-12.2-35.874l.8-.53c6.764 11.007 9.549 23.805 12.267 36.205l.2.929c.73 3.182 1.592 6.432 2.387 9.482.862 3.183 1.724 6.5 2.454 9.814a75.872 75.872 0 0 0 2.254 7.824 63.735 63.735 0 0 1 2.785 10.743z" fill="#ffffff"></path><path d="M35.092 164.108c2.387-16.445 3.183-31.166 5.5-47.677a31.679 31.679 0 0 1-23.739 1.393c2.785 14.787 5.3 32.094 8.089 46.881 2.524 2.52 7.497 2.188 10.15-.597z" fill="#643cff"></path><path d="M82.437 79.96a74.477 74.477 0 0 1 39.057-34.613c10.411-3.979 22.081-5.5 32.757-2.321 14.323 4.31 25.066 16.71 31.034 30.37s7.891 28.778 9.681 43.632c1.459 11.671 2.851 23.275 4.31 34.945.995 8.289 1.79 17.639-3.514 24.137-3.25 3.979-8.157 6.1-13.063 7.626-12.666 3.979-26.06 4.642-39.256 5.172q-47.544 1.791-95.089.6c-9.748-.265-20.026-.729-28.116-6.167-3.514-2.387-6.564-5.769-7.559-9.946-.8-3.382-.133-6.963.928-10.345 6.234-19.561 25.066-31.63 40.118-45.688A147.347 147.347 0 0 0 86.018 73.2" fill="#14d29b"></path><path d="M199.21 151.973c-1.459-11.67-2.852-23.274-4.31-34.945-1.791-14.854-3.714-29.906-9.682-43.632-3.912-9.018-9.946-17.506-17.7-23.408a53.834 53.834 0 0 1 4.443 8.156c3.714 8.621 5.438 17.971 6.565 27.188a152.187 152.187 0 0 1 1.127 18.235c0 4.509.929 11.8-2.851 15.119a7.062 7.062 0 0 1-5.305 1.724 6.212 6.212 0 0 1 2.652 3.514c4.51 11.207-2.254 24.535-7.758 34.283-4.708 8.421-11.4 15.583-20.357 19.561-4.045 1.857-33.686 11.671-31.895-.464a15.346 15.346 0 0 1-1 4.177c-1.061 2.388-2.785 3.051-5.238 3.25a217.771 217.771 0 0 1-43.1-.4c-4.708-.531-9.482-1.127-14.124-1.923-4.178-.663-8.886-1.592-12.268-4.244-1.525-1.194-2.718-2.851-2.32-4.841.331-1.923 2.586-3.647 1.127-5.636-1.26-1.724-4.045-2.122-5.9-2.851a67.696 67.696 0 0 1-5.039-2.189c-3.382-1.591-7.361-3.58-9.549-6.763l-.066-.067a46.287 46.287 0 0 0-3.051 7.228c-1.061 3.316-1.724 6.9-.928 10.345.995 4.177 3.979 7.559 7.559 9.946 8.09 5.438 18.368 5.968 28.116 6.167q47.544 1.194 95.089-.6c13.262-.53 26.657-1.193 39.256-5.172 4.906-1.525 9.813-3.647 13.063-7.626 5.234-6.493 4.505-15.843 3.444-24.132z" fill="#008c6e"></path><path d="M74.812 145.873a12.543 12.543 0 0 0-5.836 5.437c-.862 1.658-1.392 3.515-2.718 4.841-2.785 2.719-7.759 1.79-10.61 4.376 4.443-.928 9.018.4 13.2 2.189s8.222 3.912 12.731 4.708c5.3.928 10.743-.2 16.18-.6s11.273.2 15.318 3.846c-.464-4.841 2.917-9.217 6.962-11.936s8.753-4.443 12.467-7.626c5.7-4.84 8.288-12.333 11.339-19.163s6.631-13.262 13.792-15.848c-3.315-.332-5.305-1.327-6.9-4.045-1.591-2.653-1.923-5.9-2.056-9.085a118.722 118.722 0 0 1 .266-16.113c.729-5.637 2.718-11.936-1.393-14.39-7.36-4.376-32.293 7.228-36.338 15.252-5.371 10.543-5.5 23.076-10.477 33.752-5.106 10.745-15.119 19.498-25.927 24.405z" fill="#008c6e"></path><path d="M82.437 79.96c.6-1.193 1.327-2.32 1.99-3.514.53-1.061 1.061-2.188 1.591-3.249z" fill="#14d29b"></path><path d="M100.739 151.244c.8 3.117 1.658 6.3 3.514 8.886.863 1.127 1.99 2.453 1.526 3.846-.4 1.392-2.122 1.856-3.515 2.387-3.183 1.193-5.636 3.713-8.222 5.9-2.653 2.189-5.9 4.045-9.284 3.448a1.34 1.34 0 0 1-.928-.53c-.4-.663.4-1.326 1-1.724 3.315-2.321 4.708-6.432 7.095-9.681a16.5 16.5 0 0 0 2.387-3.647c1.127-2.719.133-5.769-.8-8.554a20.689 20.689 0 0 1 4.907-.929 3.013 3.013 0 0 1 2.32.598z" fill="#9778ff"></path><path d="M84.493 150.581c.133 3.183.265 6.5 1.525 9.416.6 1.326 1.393 2.851.663 4.111s-2.52 1.326-3.978 1.525c-3.382.465-6.3 2.454-9.35 3.979s-6.631 2.719-9.748 1.392a1.323 1.323 0 0 1-.795-.663c-.2-.729.663-1.193 1.392-1.525 3.713-1.525 5.968-5.305 9.018-7.957a19.455 19.455 0 0 0 3.117-3.05c1.658-2.387 1.392-5.637 1.061-8.488a18.331 18.331 0 0 1 5.039.2 3.118 3.118 0 0 1 2.056 1.06z" fill="#643cff"></path><path d="M109.094 20.348a5.8 5.8 0 0 1-.663-4.907 7.629 7.629 0 0 1 3.647-4.112 10.563 10.563 0 0 1 7.626-.994 10.8 10.8 0 0 1 6.3 4.443c1.525 2.32 1.99 5.636.2 7.824-1.326 1.658-3.647 2.188-5.769 2.255-3.516 0-9.219-1.327-11.341-4.509z"></path><path d="M108.431 21.607c2.321-2.121 5.835-2.32 8.819-1.392a9.251 9.251 0 0 1 4.509 2.851 5.609 5.609 0 0 1 1.194 5.04 4.1 4.1 0 0 1-3.979 2.984 6.8 6.8 0 0 1-2.254-.663 69.662 69.662 0 0 1-7.56-4.112c-1.923-1.193-2.718-2.915-.729-4.708z" fill="#d70a32"></path><path d="M88.273 43.026a20.423 20.423 0 0 1 8.421-14.788 21.58 21.58 0 0 1 17.042-3.448 14.1 14.1 0 0 1 4.642 1.791 15.841 15.841 0 0 1 5.238 6.034 29.084 29.084 0 0 1 3.05 8.62 29.478 29.478 0 0 1 .067 9.947 6.587 6.587 0 0 1-4.509 5.57 13.208 13.208 0 0 1-8.753.066c-6.3-2.055-13-3.581-19.1-6.167-1.79-.8-3.846-1.392-5.039-2.984a6.265 6.265 0 0 1-1.059-4.641z"></path><path d="M69.772 58.012c1.592-3.581 4.973-5.7 9.085-7.692A25.109 25.109 0 0 1 90.262 48a16 16 0 0 0 .862 2.851c-7.029 3.78-15.318 7.095-21.153 12.6-2.851-2.919-5.571-5.771-8.554-8.551a33.321 33.321 0 0 1-.066-6.83 8.367 8.367 0 0 1 5.769 3.51 11 11 0 0 1 2.652 6.432z" fill="#fdb849"></path><path d="M126.8 76.048a47.085 47.085 0 0 1-6.366-21.285c-.2 1.259-1.392 1.923-2.321 2.851a55.96 55.96 0 0 1-6.763 5.04 93.693 93.693 0 0 1 3.912 18.1 10.161 10.161 0 0 0 6.432-.2c2.187-.792 3.779-2.649 5.106-4.506z"></path><path d="M143.111 121.736c.73-14.721 1.128-23.54 1.857-38.2.2-4.045.4-8.156-.8-12s-4.045-7.427-7.957-8.421c-4.642-1.128-9.283 1.591-13.4 4.045s-9.217 4.708-13.527 2.652c-2.056-1-2.785-3.713-4.841-4.708-1.923-1-4.376-.2-5.968 1.26a14.351 14.351 0 0 0-3.315 5.57c-7.36 18.633-6.034 28.381-1.326 47.876 2.993 1.661 33.694 3.053 49.277 1.926z" fill="#643cff"></path><path d="M115.46 121.272c-.265-1.658-1.525-3.913-2.122-5.5.066.133 5.172.133 6.366.133 7.294.2 14.986.6 21.418 4.111.995.53 2.188 1.061 1.989 1.989-.265 1.061-1.459 1.26-2.321 1.26a113.993 113.993 0 0 1-12.532-.663c-2.122-.2-4.244-.332-6.366-.6-.663-.067-6.366-.402-6.432-.73z"></path><path d="M81.509 89.841c-1.658-5.3-8.289-8.024-13.594-6.432s-9.15 6.5-10.742 11.869-.928 12 .531 17.373c4.708 17.772 8.62 27.917 14.986 42.9 3.846 2.056 11.538.862 15.119-1.326-.929-10.079-1.99-14.389-3.051-22.214s-.331-13.461-3.116-20.888a36.937 36.937 0 0 0-.133-21.282z" fill="#d70a32"></path><path d="M96.1 61.46a13.42 13.42 0 0 0 8.156 7.161c3.846 1.061 6.5.4 9.881-1.458a18.594 18.594 0 0 0 9.084-16.18 48.881 48.881 0 0 0-3.912-16.511c-1.326-3.051-4.973-4.311-8.09-5.04-5.769-1.326-14.655-1.127-17.506 5.106-2.321 4.973-2.188 11.8-1.061 16.975A38.391 38.391 0 0 0 96.1 61.46z" fill="#f7846c"></path><path d="M96.562 35.864a7.571 7.571 0 0 1 7.625-.994 5.618 5.618 0 0 1 5.57.663 9.132 9.132 0 0 1 3.249 3.846c.8 1.525 1.327 3.249 2.255 4.708a5.9 5.9 0 0 0 3.581 2.851c1.392.332 3.58 0 4.443-1.127-.133-3.78-1.526-7.162-3.117-10.61a7.64 7.64 0 0 0-3.581-3.912 27.956 27.956 0 0 0-5.437-2.321c-5.769-1.326-15.185-1.061-18.1 5.238a27.915 27.915 0 0 0-1.658 8.356 16.758 16.758 0 0 1 5.17-6.698z"></path><path d="M101.336 49.856c-1.127-1.26-3.183-2.918-4.907-2.719s-3.249 1.193-3.846 3.713c0 0 1.26.995 4.177.73a8.515 8.515 0 0 0 4.576-1.724zm13.129-1.327c-1.127-1.259-3.183-2.917-4.907-2.718s-3.249 1.193-3.846 3.713c0 0 1.26.995 4.178.729a8.5 8.5 0 0 0 4.575-1.724z" fill="#ffffff"></path><path d="M96.959 47.137h-.53c-1.724.2-3.249 1.193-3.846 3.713 0 0 1.26.995 4.177.73a10.482 10.482 0 0 0 1.526-.266 18.065 18.065 0 0 1-1.327-4.177zm13.196-1.326h-.663c-1.724.2-3.249 1.193-3.846 3.713 0 0 1.26.995 4.178.729a9 9 0 0 0 1.525-.265 15.77 15.77 0 0 1-1.194-4.177z"></path><path d="M102.728 86.923a53.6 53.6 0 0 0-23.142 1.658 32.289 32.289 0 0 0-3.647-.6 18.926 18.926 0 0 0-4.244-6.631c-.4-.4-.663-.729-1.061-1.061-2.785-9.88-7.095-19.3-11.471-28.58a7.165 7.165 0 0 1 1.989-2.851 12.368 12.368 0 0 1 8.62 9.35 19.184 19.184 0 0 1 9.814-7.029c3.846-1.326 7.957-1.658 12.069-2.056a10.621 10.621 0 0 1 5.172 5.04c4.907 9.883 4.373 21.885 5.901 32.76z" fill="#ffffff"></path><path d="M110.951 58.41a9.779 9.779 0 0 1-2.586 2.917 4.29 4.29 0 0 1-1.658.8 3.781 3.781 0 0 1-1.923.066 3.08 3.08 0 0 1-.928-.53 3.479 3.479 0 0 1-.995-1.26 33.593 33.593 0 0 1 8.09-1.993z" fill="#dd4040"></path><path d="M103.922 58.012c-1.194.132-2.586.464-3.117 1.193-.331.4.133 1.26.8 1.459a4.035 4.035 0 0 0 .928.067 26.614 26.614 0 0 0 5.5-1.327c.929-.265 3.05-.862 3.382-1.326-2.056.464-5.172-.265-7.493-.066z"></path><path d="M80.05 95.543c8.289-5.5 16.18-7.891 25.8-5.371-2.918-14.455-4.575-23.009-7.758-36.271-9.682-4.045-23.01 1.591-27.519 6.564-1-.132-2.122-.4-3.117-.53a12.3 12.3 0 0 0-2.188-3.846 18.861 18.861 0 0 0-3.382-3.515 7.7 7.7 0 0 0-4.509-1.657 174.011 174.011 0 0 1 11.467 31.364c2.719.929 4.244 3.515 5.437 6.1a24.932 24.932 0 0 1 2.056 6.034 34.232 34.232 0 0 0 3.713 1.128z" fill="#fb9157"></path><path d="M73.883 74.457a54.201 54.201 0 0 1-1.193-4.708c-.265-1.194-.6-2.387-.862-3.581-.531 0-1-.066-1.525-.066.331 1.127.663 2.254.928 3.315.4 1.658.862 3.249 1.326 4.907.4 1.525.8 3.117 1.26 4.642a25.187 25.187 0 0 1 1 3.846 10.8 10.8 0 0 1 1.459-.066c-.337-1.26-1.995-6.83-2.393-8.289zm18.766-15.716a19.2 19.2 0 0 0-8.885-.331 15.039 15.039 0 0 0-4.974 2.122 14.529 14.529 0 0 0-3.05 2.254c1.989 5.371 3.249 11.008 4.774 16.511a19.418 19.418 0 0 1 8.286-4.045 34.317 34.317 0 0 1 8.621-.862c-1.655-5.172-3.313-10.41-4.772-15.649z" fill="#008c6e"></path><path d="M75.342 88.515c-.928-4.974-7.824-28.647-7.891-28.647a12.325 12.325 0 0 0-2.188-3.846 18.886 18.886 0 0 0-3.382-3.514 7.692 7.692 0 0 0-4.509-1.658 174.021 174.021 0 0 1 11.472 31.365c2.719.928 4.244 3.514 5.437 6.1a25.318 25.318 0 0 1 1.99 5.7c-.332-1.787-.597-3.644-.929-5.5z" fill="#fdb849"></path><path d="M124.677 67.362c-.332-1.791-.729-3.515-1.061-5.3a16.77 16.77 0 0 1-12.068 6.763 31.124 31.124 0 0 1-.332 3.581 2.891 2.891 0 0 0 2.52 1.592 6.954 6.954 0 0 0 3.05-.8c2.984-1.261 5.371-3.715 7.891-5.836z" fill="#ff465a"></path><path d="M113.6 44.75a4.244 4.244 0 0 0-3.315-1.128 32.313 32.313 0 0 1-3.581.2 3.278 3.278 0 0 1-2.918-1.79c1.327-.066 2.653-.53 3.979-.6a9.539 9.539 0 0 1 3.647.265 3.592 3.592 0 0 1 2.188 3.053zM99.877 42.3a3.362 3.362 0 0 1-2.255 2.189 20.991 20.991 0 0 1-2.851.4 3.434 3.434 0 0 0-2.52 1.592 3.253 3.253 0 0 1 1.393-3.05 5.53 5.53 0 0 1 2.984-.862c.994-.069 2.321.324 3.249-.269z"></path><path d="M103.524 54.1a10.256 10.256 0 0 0-1.061-5.967 6.075 6.075 0 0 1-2.387 5.835 6.114 6.114 0 0 0 3.448.132z" fill="#dd4040"></path><path d="M124.611 45.744a4.9 4.9 0 0 0-3.581 1.856 15.416 15.416 0 0 0-1.194 2.321 3.513 3.513 0 0 1-2.122 1.658c-1.591.2-2.519-1.459-3.182-2.918-2.056-4.31-2.918-9.217-5.7-13.2a4.453 4.453 0 0 0-2.122-1.856 2 2 0 0 0-2.454.862 2.446 2.446 0 0 1 2.852-1.99 4.972 4.972 0 0 1 3.116 2.189c2.852 3.779 3.117 8.819 5.239 13.063.331.729.8 1.856 1.658 1.724 1.26-.2 1.923-1.525 2.718-2.387 1.191-1.255 3.114-1.454 4.772-1.322z"></path><path d="M123.218 44.02a2.849 2.849 0 0 1 2.653-.663 2.913 2.913 0 0 1 1.657 2.52c.332 2.321-.663 4.642-1.923 6.631a7.463 7.463 0 0 1-1.591 1.923 2.057 2.057 0 0 1-1.459.6c-.862-.066-1.326-.995-1.591-1.791-.73-3.053-.264-7.23 2.254-9.22z" fill="#f7846c"></path><path d="M125.672 49.856c-1.393.6-2.454 2.188-3.515 3.249a28.464 28.464 0 0 1 1.061-4.708c.531-1.525.995-2.918 2.387-3.448a4.665 4.665 0 0 0-1.061 2.785c-.132.866-.265 2.453 1.128 2.122z" fill="#dd4040"></path><path d="M89.466 154.228a17.6 17.6 0 0 1-17.373 1.923 40.163 40.163 0 0 1-2.122-5.172c3.316 1.326 13.594 1.061 17.771-1.724.332 1.657 1.194 3.183 1.724 4.973z" fill="#ffffff"></path><path d="M139.464 121.471a40.712 40.712 0 0 1-4.376 22.479c-1.99 4.045-4.708 7.957-8.687 9.946a20.267 20.267 0 0 1-9.946 1.724 13.228 13.228 0 0 1-6.234-1.392c-1.856-1.061-3.846-2.719-3.779-4.907a18.727 18.727 0 0 1 .265 6.1 27.625 27.625 0 0 1-15.649 1.856c-.73-.132-2.321-4.376-2.653-5.106-.928-1.856-1.724-3.779-2.519-5.636-1.658-3.912-3.183-7.891-4.709-11.936-3.05-8.023-6.5-16.047-8.156-24.468C71.3 101.445 70.9 88.05 81.111 84.4c5.57-1.989 11.538 1.194 15.583 5.57 8.223 8.886 12.533 16.18 18.832 27.983 7.891.467 17.574.269 23.938 3.518z" fill="#ff465a"></path><path d="M125.539 148.923a14.8 14.8 0 0 1-7.294-1.923 18.447 18.447 0 0 1-4.907-4.443c-3.183-3.912-5.3-8.554-7.162-13.262-1.79-4.442-3.912-7.692-5.437-12.2-1.923-5.57-4.177-11.471-4.575-19.362a10.385 10.385 0 0 1-.73 3.514c-.663 1.127-1.326 1.194-2.453-.133-.332-.4-2.52-4.641-2.918-5.371.4 1.26.6 2.586.862 3.846a8.61 8.61 0 0 1 .332 2.918c-.266 1.658-2.586.2-3.515-.133 1.128 1.061 2.387 2.52 3.183 3.448a38.738 38.738 0 0 1 2.785 3.714 63.108 63.108 0 0 1 5.106 10.676 157.844 157.844 0 0 1 4.244 12.267c2.188 7.427 3.912 20.026 3.78 18.5a7.94 7.94 0 0 0 3.448 3.315 13.406 13.406 0 0 0 6.233 1.393 20.422 20.422 0 0 0 9.946-1.724 18.068 18.068 0 0 0 6.9-6.7 19.311 19.311 0 0 1-7.828 1.66z" fill="#d70a32"></path><path d="M108.1 155.488a8.783 8.783 0 0 1-3.846 1.923c-4.509 1.326-9.217 2.321-13.659.8a22.3 22.3 0 0 1-2.852-5.239c7.095-.133 13.329-.928 19.23-3.713.327 1.852.727 4.505 1.127 6.229z" fill="#ffffff"></path><path d="M143.575 133.141a67.582 67.582 0 0 0-16.175 12.135 37.173 37.173 0 0 0-9.682 17.572c6.83 0 14.125-1.392 19.032-6.1a24.228 24.228 0 0 0 6.432-11.14c1.189-4.244.393-8.157.393-12.467z" fill="#14d29b"></path><path d="M111.083 83.674a27.589 27.589 0 0 1-4.708-7.626 13.372 13.372 0 0 0-5.172-6.7 17.848 17.848 0 0 1-2.122-1.791c-2.055-1.657-3.183-6.166-6.1-5.039 1.392 2.254 2.652 4.642 4.045 6.9a26.052 26.052 0 0 1-3.25-3.382c-1.06-1.127-2.121-2.718-3.912-2.055.4.663.73 1.525 1.127 2.188a1.079 1.079 0 0 0-1.525-.332 13.768 13.768 0 0 0 3.515 5.9c-1.128-1.061-2.918-2.188-4.244-1 2.52 1.592 4.177 3.78 6.034 5.836a24.81 24.81 0 0 0 4.576 4.177 15.677 15.677 0 0 0 2.586 1.326c.862.465 1.79.8 2.586 1.327A11.956 11.956 0 0 1 106.11 85c.8.928 1.525 1.923 2.255 2.918a8.155 8.155 0 0 0 2.718-4.244z" fill="#f7846c"></path><path d="M93.909 72.865a2.9 2.9 0 0 0-.4-.464c-.265-.265-.265-.331-.53-.6a5.048 5.048 0 0 0-2.454-1.458 10.706 10.706 0 0 1 1.326 1.127 6.832 6.832 0 0 0 2.321 1.79c-.066-.066-.066-.132-.132-.2a.065.065 0 0 0-.065-.06.235.235 0 0 0-.066-.135zm-.862-3.58c-.8-1.061-2.122-3.183-2.122-3.117a1.355 1.355 0 0 0-.663-.464 24.835 24.835 0 0 0 1.061 2.321 7.11 7.11 0 0 0 1.061 1.657 5.3 5.3 0 0 0 1.79 1.194l.4.2c-.466-.532-.996-1.128-1.527-1.791z" fill="#dd4040"></path><path d="M110.752 81.154c4.642 3.912 8.09 7.095 11.405 13.129-.265-6.7 1.26-13.394 3.051-19.893.928-3.315 1.989-6.7 4.111-9.349s5.636-4.576 8.952-3.913c2.984.6 5.3 3.117 6.432 5.968a23.011 23.011 0 0 1 1.127 9.018c-.332 11.6-2.918 22.944-6.3 34.018-1.061 3.381-2.321 7.029-5.305 8.952-2.918 1.856-6.83 1.591-9.947 0a20.247 20.247 0 0 1-7.36-7.228c-5.836-8.82-6.631-16.777-12.8-25.928 2.058-2.122 3.782-3.846 6.634-4.774z" fill="#9778ff"></path><path d="M106.906 89.642c1.26-2.586 3.846-4.244 6.432-5.3a3.683 3.683 0 0 1 .8-.265c-1.061-1-2.189-1.923-3.382-2.918-2.851.928-4.576 2.652-6.5 4.907.929 1.393 1.725 2.785 2.454 4.111.063-.204.13-.336.196-.535z" fill="#ff465a"></path><path d="M123.55 97.135c.6 1.392 1.127 2.851 1.658 4.31.464 1.194.928 2.453 1.392 3.647a12.786 12.786 0 0 1 1-.928 44.846 44.846 0 0 0-5.371-11.207v1.327c-.138-.133.857 1.79 1.321 2.851z"></path><path d="M62.611 65.9a39.781 39.781 0 0 1 1.525-3.913 2.041 2.041 0 0 1 .928 1.791 22.961 22.961 0 0 1-.6 3.116c.8-.994 1.525-1.989 2.255-2.984a1.86 1.86 0 0 1 .663 2.189 1.194 1.194 0 0 1 .4 1.061 2.238 2.238 0 0 1-.332 1.127 7.994 7.994 0 0 1-1.326 1.989c.8-.53 1.459-.928 2.255-1.459a2.3 2.3 0 0 1-.8 2.321c-.531.531-1 1.127-1.525 1.724.4 1.26.663 2.255 1.061 3.714-.464.331-.929.066-1.393-.266a3.855 3.855 0 0 1-1.061-1.259 4.425 4.425 0 0 1-1.061-2.785c0-.2.067-.4 0-.531-.066-.265-.331-.464-.4-.729a3.939 3.939 0 0 0-.132-.929c-.133-.2-.332-.331-.4-.6s.066-.6 0-.928a3.517 3.517 0 0 0-.332-.729 3.191 3.191 0 0 1 .275-1.92z" fill="#dd4040"></path><path d="M62.08 47.866a8.28 8.28 0 0 1 4.907 4.31 26.5 26.5 0 0 1 2.056 6.366" fill="none"></path></g></svg>