<svg xmlns="http://www.w3.org/2000/svg" viewBox="0 0 250 250" height="400" width="400"><g transform="matrix(1.25,0,0,1.25,0,0)"><defs></defs><path d="M85.9.013a105.351 105.351 0 0 1-6.5 14.067 58.408 58.408 0 0 1-6.567 6.62c-5.744 4.923-12.192 8.968-18.17 13.54-4.689 3.634-9.2 7.736-11.6 13.129a16.437 16.437 0 0 0-1.173 4.1 28.568 28.568 0 0 0-2.344 2.93 17.363 17.363 0 0 0-2.872 7.268 7.5 7.5 0 0 1-3.634-1.406 4.891 4.891 0 0 0 3.516 2.4 12.013 12.013 0 0 0 1.407 6.858 11.888 11.888 0 0 1 .645-6.682h.292a12.92 12.92 0 0 0 2.169-.352 12.674 12.674 0 0 0-.235 5.744 13.624 13.624 0 0 1-1.641-.645 12.732 12.732 0 0 0 1.7 1 13.911 13.911 0 0 0 2.637 5.744 13.932 13.932 0 0 1-1.289-5.158c3.106 1.172 6.154 1.055 9.788.176 5.682-1.346 9.902-6.5 13.301-11.6a140.71 140.71 0 0 0 14.07-27.02c.351-.938.762-1.934 1.113-2.931A102.025 102.025 0 0 0 90.534 6.226a6.757 6.757 0 0 1 3.693 3.165l4.923-1.759A14.756 14.756 0 0 0 85.9.013zM48.1 52.706a23.485 23.485 0 0 0-5.216 5.568c-.059-.879-.118-1.7-.176-2.579.176-.235.41-.469.586-.7 3.341-3.927 7.678-6.8 12.074-9.379 1.876-1.113 3.751-2.11 5.627-3.223-1.289 1.348-2.579 2.7-3.751 4.161-2.991 2.046-6.215 3.866-9.144 6.152zm3.165.82a38.938 38.938 0 0 1-6.154 5.451c-.117.059-.176.117-.293.176a15.882 15.882 0 0 1 2.7-2.931c1.166-.937 2.456-1.817 3.745-2.696zm-4.515-9.319c3.634-4.162 8.382-7.151 12.836-10.492a113.738 113.738 0 0 0 18.229-17c-.352.528-.645 1.114-1 1.641C70.371 28.5 60.993 36.411 51.381 43.562a81.4 81.4 0 0 0-7.913 6.33 16.533 16.533 0 0 1 .645-1.817 15.584 15.584 0 0 1 2.637-3.868zm-7.678 17.349a27.36 27.36 0 0 1 2.813-4.747c.117.82.235 1.641.411 2.461a21.099 21.099 0 0 0-.821 1.641 11.069 11.069 0 0 1-2.286.645zM72.774 40.4A98.292 98.292 0 0 1 64.8 55.05c-2.872 4.513-6.389 9.613-11.019 11.781a19.812 19.812 0 0 1-11.661 1.642 16.021 16.021 0 0 1 1.055-6.155c.351 1 .7 1.993 1.113 2.931a31.106 31.106 0 0 1-.879-3.517 2.832 2.832 0 0 0 .176-.41c.528-.293 1.114-.645 1.641-.938a57.191 57.191 0 0 0 8.206-6.858c1.348-1.231 2.638-2.461 3.986-3.692a66.828 66.828 0 0 0 17.408-14.478c-.704 1.7-1.348 3.4-2.052 5.044zm31.944-26.848a22.4 22.4 0 0 1 4.572-3.575c1.524 5.041 2.521 10.492 1.114 15.591-1.29 4.806-4.513 8.733-7.092 13.012a17.871 17.871 0 0 0-2.169 4.689 6.829 6.829 0 0 0 .527 5.041 7.83 7.83 0 0 1 .88-5.451 30.209 30.209 0 0 1 3.165-4.572c4.806-6.448 7.854-14.478 6.916-22.449a11.1 11.1 0 0 0-2.989-7.033c-2.342.527-3.986 2.461-4.924 4.747z"></path><path d="M179.919 113.253c2.462-3.517 2.11-8.968-1.231-11.606a10.659 10.659 0 0 0-5.1-1.934 13.4 13.4 0 0 0-10.727 3.165 9.824 9.824 0 0 0-2.637 10.551c3.107 7.737 15.65 5.571 19.695-.176z" fill="#fb9157"></path><path d="M71.543 200c-13.188-3.106-26.082-6.272-39.446-8.675 20.632-10.14 41.146-20.4 61.719-30.713 2.755 1.759 5.627 2.579 8.734 3.693 11.312-4.22 21.511-8.909 32.413-14.067 5.744 5.685 10.2 11.6 16 17.29 3.693-1.875 6.623-3.516 10.316-5.333 9.261 7.5 18.639 16.06 27.431 24.09-9.378 3.165-18.581 6.623-27.959 9.788a153.425 153.425 0 0 0-23.21-7.034C115.093 193.9 96.571 196.6 71.543 200z" fill="#14d29b"></path><path d="M114.155 170.225c-3.634 1.348-10.14 6.975-10.726 6.975-4.631 0-24.383.058-26.259-.294-3.57 1.817-18.111 6.858-21.57 8.094 1.875.528 11.957 2.286 14.829 3.751.82.411-2.345 4.689-2.345 4.748 1.934-.235 27.079-5.627 33.351-6.8.762-.117 4.923 2.579 6.8 3.048 3.224-1.817 21.452-10.375 23.914-11.195.528-.176 7.268 2.93 10.492 3.692 4.982-1.934 9.612-4.806 14.536-7.033-3.81-1.524-7.5-3.165-11.195-4.982z" fill="#008c6e"></path><path d="M106.008 145.021c-8.558-1.407-10.726-2.4-14.536-5.8s-8.089-7.326-13.188-6.916c-1.641.117-3.224.7-4.865.7-3.517 0-6.389-2.579-9.085-4.747-5.861-4.748-13.012-8.44-20.515-8.089s-15.063 5.979-15.591 13.481c-.351 4.806-7.209 7.151-11.546 9.32a59.459 59.459 0 0 1-13.774 4.571c6.74-.058 75.024-2.11 103.1-2.52z" fill="#9778ff"></path><path d="M87.428 142.618c-3.048-1.407-5.686-3.4-8.734-4.865a13.882 13.882 0 0 0-5.744-1.465 39.66 39.66 0 0 0-5.92.41 19.819 19.819 0 0 1-4.923.176 14.648 14.648 0 0 1-3.869-1.114 39.7 39.7 0 0 1-6.271-4.1 18.074 18.074 0 0 0-6.858-3.458 13.966 13.966 0 0 0-9.319 1.583c-2.755 1.524-6.624 5.333-8.265 5.978-1.817 3.458-7.268 5.393-10.9 7.21a59.427 59.427 0 0 1-13.774 4.571c5.979-.058 60.137-1.7 92.022-2.4a32.719 32.719 0 0 1-7.445-2.526z" fill="#643cff"></path><path d="M197.151 122.807a29.715 29.715 0 0 1-12.9-6.1c-3.458-2.7-7.913-5.275-11.9-3.575-1.641.7-3.107 2.051-4.924 1.992-3.224-.175-4.044-4.454-5.509-7.268-2.755-5.216-9.906-6.623-15.474-4.689s-9.789 6.331-13.891 10.551c-.059-2.579-2.638-4.513-5.217-4.631s-4.982 1.173-7.034 2.638c-3.751 2.637-7.033 5.92-10.784 8.616s-6.331 3.4-12.778 4.22c35.995.063 65.712.063 100.411-1.754z" fill="#9778ff"></path><path d="M182.38 117.356a11.508 11.508 0 0 0-7.209-1.583c-2.344.293-4.572 1.29-6.916 1.641a8.018 8.018 0 0 1-4.689-.351 8.689 8.689 0 0 1-3.458-3.517 24.854 24.854 0 0 0-3.869-5.334 18.744 18.744 0 0 0-5.509-3.751 16.747 16.747 0 0 0-4.338-1.29c-5.568 1.935-9.788 6.331-13.891 10.551-.059-2.579-2.638-4.513-5.217-4.631s-4.982 1.173-7.033 2.638c-3.751 2.637-7.034 5.92-10.785 8.616s-6.33 3.4-12.778 4.22c34.641.059 63.478.059 96.536-1.524-3.81-1.289-7.21-3.692-10.844-5.685z" fill="#643cff"></path><path d="m145.923 23.927-2.051 16.529h6.271l1.993-13.306-6.213-3.223z"></path><path d="M165.324 21.348c-5.392 2.461-11.781 0-17.584 1.231a2.384 2.384 0 0 0-1.524.762c-.762 1 .235 2.461 1.29 3.106s2.4 1.172 2.813 2.4c.469 1.407-.762 2.872-2.168 3.283a9.131 9.131 0 0 1-4.338-.235c-6.8-1.465-14.36-1.993-20.28 1.7 4.513.469 6.506 4.63 9.026 8.382s5.393 7.912 9.789 8.85a2.709 2.709 0 0 0 2.989-.879c.293-.528 1.407-5.568 1.524-5.568h.059c4.806.644 9.319 4.161 14.125 3.341a84.514 84.514 0 0 0 4.279-26.373z" fill="#14d29b"></path><path d="M146.861 44.324h.059c.293.059 2.227.528 2.461.586.528-3.165 1.114-7.033 1.817-10.14.938-4.279 1.29-8.264 2.521-12.484a25.4 25.4 0 0 0-6.037.293 2.382 2.382 0 0 0-1.524.762c-.762 1 .234 2.461 1.289 3.106s2.4 1.172 2.814 2.4a2.1 2.1 0 0 1 0 1.29c-.352 1.406-1.173 3.634-1.524 5.04-.528 2.055-1.937 9.088-1.876 9.147z" fill="#008c6e"></path><path d="M155.77 73.4a5.331 5.331 0 0 0 1.348.176 1.5 1.5 0 0 0 1.173-.645c.293-.41 1.348.059 1.582-.41.176-.41-.586-1.172-.352-1.231.352-.117.7-.293 1-.41.058-.059.176-.059.234-.118.118-.117.059-.293 0-.41s-.176-.234-.234-.352c-.176-.468.352-1.348.352-1.817-.059-.586-.821-.644-1.349-.937a3.718 3.718 0 0 0-1.23-.528 1.747 1.747 0 0 0-.938.117c-1.641.352-3.224.938-4.865 1.29a8.876 8.876 0 0 0-3.048 1 1.677 1.677 0 0 0-.586 1.759c1.404 1.926 4.743 2.043 6.913 2.516z" fill="#e28a42"></path><path d="m139.588 172.29 26.014-157.521 2.024.334-26.014 157.521z"></path><path d="M153.074 70.817a8.315 8.315 0 0 0 2.4-1.876A4.729 4.729 0 0 1 157.7 67.3c.7-.234 2.345-.762 2.11-1.817-1.348.235-3.34.821-4.513.879a20.571 20.571 0 0 1-3.282-.293 5.462 5.462 0 0 0-3.224.469c-1.172.7-1.582 1.173-1.231 2.521.415 1.641 3.697 2.579 5.514 1.758z" fill="#f2bf8c"></path><path d="M123.006 95.435a39.557 39.557 0 0 1-16.588 7.326c-6.916 1.29-14.36.645-20.4-2.989-2.872-1.7-5.275-4.044-8.03-5.979s-5.979-3.4-9.32-3.165a152.917 152.917 0 0 1 22.276-5.568c9.671-1.524 19.929-1.993 28.779 2.169 1.759.82 3.517 1.934 4.279 3.634.821 1.817.586 3.399-.996 4.572z"></path><path d="M102.725 40.4c5.217-.469 10.2 1.934 14.888 4.337 2.521 1.29 5.041 2.521 7.385 3.986 4.4 2.7 8.323 6.1 12.544 9.026s8.909 5.51 14.008 6.213a16.058 16.058 0 0 1-6.389 11.84c-3.048-1-6.154-2.227-9.2-3.224-2.286-.762-4.63-1.465-6.858-2.4-12.603-5.164-22.626-16.71-26.378-29.778z" fill="#fb730e"></path><path d="M101.084 38.4c10.258 5.51 16.471 16.881 17.819 28.427s-1.641 23.27-6.389 33.879c-1.114-5.041-.352-10.433-.059-15.591a56.361 56.361 0 0 0-3.634-23.094c-1.524-3.986-3.517-7.8-5.04-11.781s-2.99-7.557-2.697-11.84z" fill="#fb9157"></path><path d="M156.415 68.766a8.134 8.134 0 0 0-1.055.762c-.117.117-.41.41-.352.586.117.293.762.234 1 .234a9.459 9.459 0 0 0 3.341-.7 3.64 3.64 0 0 0 1.465-1 .646.646 0 0 0-.41-1.055 1.69 1.69 0 0 0-.762 0 8.872 8.872 0 0 0-3.227 1.173z" fill="#f2bf8c"></path><path d="M158.115 70a6.027 6.027 0 0 0-2.7.587c-.235.117-.469.351-.352.586a.322.322 0 0 0 .293.176 6.966 6.966 0 0 0 2.7.293 10.284 10.284 0 0 0 1.934-.235c.352-.117 1.348-.586.821-1.055a2.936 2.936 0 0 0-1.231-.293 12.655 12.655 0 0 0-1.465-.059z" fill="#f2bf8c"></path><path d="M155.477 71.638c-.234.058-.469.234-.469.469a.55.55 0 0 0 .293.41 4.5 4.5 0 0 0 2.345.586c.586.059 3.341-.117 1.875-1.231a6 6 0 0 0-4.044-.234z" fill="#f2bf8c"></path><path d="M157.939 72.751a5.685 5.685 0 0 0-1.993-.058c-.176 0-.41.117-.41.293 0 .058.058.117.117.176a3.889 3.889 0 0 0 1.114.527 13.339 13.339 0 0 0 1.641.41c.41.118 1.055.059.879-.527-.117-.41-.938-.703-1.348-.821z" fill="#f2bf8c"></path><path d="M122.83 77.147c-2.99-8.147-3.107-9.261-8.147-15.3a22.116 22.116 0 0 0 1.582-7.268 7.879 7.879 0 0 0-.7-3.282 6.755 6.755 0 0 0-1.817-2.051c-2.462-2.052-5.451-3.4-8.03-5.276s-4.806-4.923-4.748-8.088c-1.758-.7-3.81-3.107-5.627-2.7-.527 3.047-2.4 8.323-5.04 9.964-2.521 1.582-5.92 2.4-7.151 5.1-1.172 2.638.234 5.627 1.817 8.03a71.377 71.377 0 0 0 6.857 8.851c3.517 3.809 7.679 7.854 7.62 13.012 5.217 3.751 8.675 4.044 10.55 10.2a32.913 32.913 0 0 0 12.834-11.192z" fill="#ffffff"></path><path d="M111.928 149.769c1.348 5.92 3.165 11.9 2.637 17.877a3.773 3.773 0 0 0 4.22.586l.528-11.664c.117-2.286.176-4.572.293-6.8z" fill="#e28a42"></path><path d="M114.214 160.085a29.759 29.759 0 0 1 .351 7.561 3.773 3.773 0 0 0 4.22.586l.411-9.964a15.989 15.989 0 0 1-4.982 1.817z"></path><path d="M84.2 149.769H75c-.293 8.03.762 16.294 1.817 24.265a6.649 6.649 0 0 0 4.4-.175 57.9 57.9 0 0 1 1.113-17.408 43.372 43.372 0 0 1 1.87-6.682z" fill="#f2bf8c"></path><path d="M81.39 161.843a8.49 8.49 0 0 1-5.92 1.231 215.12 215.12 0 0 0 1.349 10.96 6.649 6.649 0 0 0 4.4-.175 58.732 58.732 0 0 1 .171-12.016z"></path><path d="M110.99 152.582a36.058 36.058 0 0 0 9.378-1.172 197.4 197.4 0 0 1 3.458-24.911c.7-3.575 1.583-7.092 2.11-10.667 2.228-13.833.645-28.134-3.692-41.5a40.471 40.471 0 0 1-13.716 9.026 150.752 150.752 0 0 0 2.345 28.6 52.566 52.566 0 0 1 1.348 10.433c-.117 5.334-2.052 10.434-2.638 15.709-.527 4.987-.469 9.793 1.407 14.482z" fill="#4d2a12"></path><path d="M83.676 153.637c-3.048 1-6.095-.176-9.143-1.172a25.822 25.822 0 0 1-.176-16.294c1.817-5.569 5.568-10.375 7.268-16a74.408 74.408 0 0 0 1.817-10.2c2.051-13.423 7.913-25.907 13.715-38.216a13.4 13.4 0 0 0 3.634 1A52.935 52.935 0 0 0 120.251 69a26.4 26.4 0 0 1 3.282 8.5 68.813 68.813 0 0 1-12.367 10.96 86.606 86.606 0 0 1-17.936 40.032c-3.4 4.162-4.63 9.5-6.213 14.536-1.117 3.517-2.579 7.034-3.341 10.609z" fill="#6d94d1"></path><path d="M99.736 7.163A12.281 12.281 0 0 0 96.4 2.24a5.371 5.371 0 0 0-3.458 1.407 5.671 5.671 0 0 0-1.758 3.282 9.813 9.813 0 0 1 3.4 2.989 5.227 5.227 0 0 1 5.152-2.755z" fill="#4d2a12"></path><path d="M99.267 41.218a6.327 6.327 0 0 0 3.165-.762 8.38 8.38 0 0 1-1.465-4.689c-1.758-.7-3.81-3.107-5.627-2.7a27.948 27.948 0 0 1-1.7 5.393 7.482 7.482 0 0 0 5.627 2.758z" fill="#f2bf8c"></path><path d="M99.443 38.521a6.627 6.627 0 0 0 2.11.352 7.556 7.556 0 0 1-.586-2.989c-1.758-.7-3.81-3.107-5.627-2.7-.117.586-.293 1.289-.469 2.051a11.727 11.727 0 0 0 4.572 3.286z"></path><path d="M85.611 42.1c-3.81 1.172-6.507 4.454-8.968 7.561-3.751 4.747-7.5 9.495-10.258 14.887a58.446 58.446 0 0 0 16.353 7.562 5.959 5.959 0 0 0 2.814-3.869c-1.993-.879-3.107-2.7-4.513-4.337s-3.339-3.227-5.569-3.051c2.814-2.7 5.334-5.217 7.913-8.147a12.093 12.093 0 0 0 2.989-4.689c.528-1.7-.472-4.162-.761-5.917zm23.738-11.609c-2.931 7.386-10.785 7.386-15.181 2.521-2.931-3.224-4.1-5.451-3.868-9.437.058-1.055-.352-2.11-.294-3.224.235-4.747.118-9.847 5.158-12.074 4.338-1.876 11.957-2.52 14.6 2.462 1.876 3.517 2.052 8.5 1.465 12.309a33.767 33.767 0 0 1-1.88 7.443z" fill="#f2bf8c"></path><path d="m90.3 23.575.175-.176a9.4 9.4 0 0 0 1.407-1.993A14.109 14.109 0 0 0 93 18.417c.879-2.813 2.344-6.858 6.154-6.447a12.9 12.9 0 0 1 3.927 1.289 6.25 6.25 0 0 0 4.22.645 5.668 5.668 0 0 0 1.348-.645 12.047 12.047 0 0 0 1.466-.879.724.724 0 0 0 .293-1.055 8.291 8.291 0 0 0-1.934-2.579 8.061 8.061 0 0 0-2.462-1.465 13.808 13.808 0 0 0-5.979-.762 16.605 16.605 0 0 0-5.04 1.172c-5.1 2.227-5.569 7.62-5.8 12.367.107 1.055 1.165 2.462 1.107 3.517z"></path><path d="M95.282 20.469a4.17 4.17 0 0 1 3.634-.294 3.967 3.967 0 0 1 2.344 2.755 4.769 4.769 0 0 1-3.106-.351 6.233 6.233 0 0 1-2.872-2.11zm9.671 2.637a4.078 4.078 0 0 1 2.7-2.4 3.992 3.992 0 0 1 3.517.821 4.777 4.777 0 0 1-2.7 1.582 5.922 5.922 0 0 1-3.517-.003z" fill="#ffffff"></path><path d="M99.853 20.7a3 3 0 0 0-.937-.528 4.185 4.185 0 0 0-3.634.294 6.233 6.233 0 0 0 2.872 2.11 5.5 5.5 0 0 0 .762.234 11.07 11.07 0 0 1 .937-2.11zm9.203-.056a5.1 5.1 0 0 0-1.348.059 3.844 3.844 0 0 0-2.7 2.4 6.085 6.085 0 0 0 3.576 0 2.1 2.1 0 0 0 .645-.234 5.649 5.649 0 0 1-.173-2.225z"></path><path d="M104.718 29.847a2.482 2.482 0 0 1-1.524 1.817 3.8 3.8 0 0 1-2.52-.293 8.009 8.009 0 0 1-2.989-2.755 16.99 16.99 0 0 0 7.033 1.231z" fill="#e28a42"></path><path d="M97.392 28.5a16.392 16.392 0 0 0 4.161.175 16.738 16.738 0 0 1 1.7-.117 3.737 3.737 0 0 1 1.641.352 1.033 1.033 0 0 1 .645 1.113 10.076 10.076 0 0 1-8.147-1.523z"></path><path d="M90.006 19.941a2.3 2.3 0 0 0-2.11-1.114 1.665 1.665 0 0 0-1.055.821 4.249 4.249 0 0 0-.293 1.231 7.059 7.059 0 0 0 .7 3.458 3.712 3.712 0 0 0 .937 1.348 2.354 2.354 0 0 0 1.642.7 1.488 1.488 0 0 0 .7-.117c2.117-.993.359-5.155-.521-6.327z" fill="#f2bf8c"></path><path d="M88.072 20a5.371 5.371 0 0 1 1.528 1.7 5.765 5.765 0 0 1 .821 3.4 2.97 2.97 0 0 0-2.286-1 2.037 2.037 0 0 0 .586-.645 2.144 2.144 0 0 0 .234-1.348A5.7 5.7 0 0 0 88.072 20zm16.236 7.326a13 13 0 0 1-.527-5.8 52.523 52.523 0 0 0-1.935 5.04 2.982 2.982 0 0 0 2.462.76z" fill="#e28a42"></path><path d="M95.282 18.476a3.761 3.761 0 0 1 1.758-.645 3.325 3.325 0 0 1 1.055.176c.821.176 1.641.41 2.462.645a2.013 2.013 0 0 0 .82.117c.645-.059 1.055-.645 1.407-1.114.117-.176.235-.41.352-.586a21.238 21.238 0 0 0-5.744-.821.956.956 0 0 0-.586.118 1.373 1.373 0 0 0-.411.41 9.452 9.452 0 0 0-1.113 1.7zm16.47 0a2.454 2.454 0 0 0-1.29-.645 1.812 1.812 0 0 0-.762.176c-.586.176-1.172.41-1.758.645-.176.058-.41.175-.586.117-.469-.059-.762-.645-1.055-1.114-.117-.176-.176-.41-.293-.586a11.733 11.733 0 0 1 4.22-.821.7.7 0 0 1 .469.118 1.054 1.054 0 0 1 .293.41 16.017 16.017 0 0 1 .762 1.7z"></path><path d="M91.882 36.177c6.389 3.81 10.14 10.9 12.192 17.994 1.934 6.682 2.7 13.95.762 20.632-2.462 8.381-8.91 15.122-16.178 19.928-4.278 2.814-9.026 5.217-12.426 9.027.118-1.817-1.582-3.341-3.165-4.162-2.579-1.348-5.568-2.051-7.854-3.868A10.167 10.167 0 0 1 61.4 88.46c-.234-4.1 2.052-7.972 4.807-11.02s6.1-5.568 8.733-8.733c7.916-9.495 8.502-23.507 16.942-32.53z" fill="#fb9157"></path><path d="M104.074 54.23c-1.876-6.506-5.158-13.012-10.609-16.94a25.342 25.342 0 0 1 4.044 12.837 26.787 26.787 0 0 1-.293 5.275 17.359 17.359 0 0 1 2.755 4.1 34.794 34.794 0 0 1 3.282 15.005 29.364 29.364 0 0 1-.528 5.568 26.985 26.985 0 0 0 2.111-5.217c1.934-6.737 1.172-13.947-.762-20.628z" fill="#fb730e"></path><path d="m81.625 99.713-.41-.527c1.758-1.348 3.634-2.579 5.451-3.81A68 68 0 0 0 98.1 86.35a17.951 17.951 0 0 0 4.748-8.148 18.292 18.292 0 0 0 .052-6.502 42.871 42.871 0 0 0-4.865-14.829l.587-.351a42.574 42.574 0 0 1 4.923 15.063 19.618 19.618 0 0 1-.059 6.741 17.9 17.9 0 0 1-4.923 8.44A66.572 66.572 0 0 1 87.017 95.9c-1.758 1.234-3.634 2.465-5.392 3.813z"></path><path d="M89.713 84.064a25.568 25.568 0 0 1-16.47-.118c.528-1.055 1.231-1.992 1.759-3.048a36.685 36.685 0 0 0 14.946-.41 12.124 12.124 0 0 1-.235 3.576z" fill="#fb730e"></path><path d="m89.655 68.648 4.4 1.935c.469.175 1 .527.938 1.055-.059.351-.411.644-.411 1s.235.645.176.938c-.058.527-.762.762-1 1.289-.176.411.058 1-.293 1.29a3.171 3.171 0 0 1-.586.352c-.352.175-.528.527-.821.762a3.44 3.44 0 0 1-2.638.468 14.463 14.463 0 0 1-2.286-.527 4.965 4.965 0 0 1 3.634-.7c-.761-.176-1.523-.411-2.285-.528a2.92 2.92 0 0 1-.762-.234 2.532 2.532 0 0 1-.587-.528 3.678 3.678 0 0 1-.175-3.868 5.26 5.26 0 0 1 2.696-2.704z" fill="#f2bf8c"></path><path d="M93.347 39.283c-1.055-1.817-3.516-2.461-5.568-1.934a13.9 13.9 0 0 0-5.334 3.224 82.776 82.776 0 0 0-16.821 21.394 5.1 5.1 0 0 0-.938 3.516 4.923 4.923 0 0 0 1.641 2.4 34.053 34.053 0 0 0 19.459 8.851 7.764 7.764 0 0 0 3.4-3.458 15.19 15.19 0 0 0 1.758-5.041 28.532 28.532 0 0 0-10.491-5.451c2.7-2.4 5.392-4.982 7.912-7.5 2.228-2.228 4.455-4.631 5.627-7.561a9.026 9.026 0 0 0-.645-8.44z" fill="#fb730e"></path><path d="m111.166 171.045.176.352c.351.586 1.289.879 1.817 1.172a15.1 15.1 0 0 0 2.7 1.055 47.481 47.481 0 0 0 6.154 1.583 29.341 29.341 0 0 0 6.389.41 30.1 30.1 0 0 0 5.1-.528c.118-.351.293-.7.411-1.055a4.92 4.92 0 0 0 .7-.234c-.645-3.81-4.63-3.81-6.565-4.337a57.838 57.838 0 0 1-6.8-4.045c.176-.937.352-1.934.469-2.872.059-.41.059-.937-.176-1.113a.491.491 0 0 0-.41-.118 2.471 2.471 0 0 0-1.114.176c-.527.235-1.055.411-1.582.645a3.782 3.782 0 0 0-1.466.879 2.1 2.1 0 0 0-.586 1.817c-.937-1-1.875-2.051-2.813-3.048a9.328 9.328 0 0 0-.528 1.817c-.058.645.235 1.407.7 1.466a9.129 9.129 0 0 1-3.341 3.341c-.117.058-.235.117-.235.293a.525.525 0 0 0 .059.293 5.055 5.055 0 0 0 .941 2.051z" fill="#643cff"></path><path d="M122.947 174.855a36.49 36.49 0 0 0 4.337.469 39.661 39.661 0 0 0 4.572-.117c.586-.059 1.114-.118 1.7-.176a7.108 7.108 0 0 1 .41-1h.059c-4.044.235-8.03.235-12.074.352a8.742 8.742 0 0 1-1.231-.058 8.829 8.829 0 0 0 2.227.53z" fill="#ffffff"></path><path d="M123.24 174.621a57.617 57.617 0 0 1-4.513-.7 32.054 32.054 0 0 1-3.927-1 15.928 15.928 0 0 1-3.693-1.934v.058a6.282 6.282 0 0 1-2.051 1.466 13.834 13.834 0 0 0 .879 4.161 18.487 18.487 0 0 0 4.337.938 6.794 6.794 0 0 0 3.986-1.231 2.2 2.2 0 0 1 2.169 0 8.238 8.238 0 0 1 1.875 1.289c2.989 2.4 7.151.235 10.492-1.172a5.236 5.236 0 0 0 .7-1.407 12.093 12.093 0 0 1-1.465 0c-2.869-.058-5.858-.117-8.789-.468zm-2.696-5.1-.352-.586a7.616 7.616 0 0 0 3.048-3.048l.586.352a8.82 8.82 0 0 1-3.282 3.282zm3.106.938-.527-.469a19.56 19.56 0 0 0 2.168-3.106l.587.351a17.553 17.553 0 0 1-2.228 3.224zm-5.744-2.286-.293-.645a9.882 9.882 0 0 0 3.634-2.52l.528.41a9.429 9.429 0 0 1-3.869 2.755z"></path><path d="M72.364 175.851c-.059 0-.059.059 0 0 0 .176.117.235.176.411a4.9 4.9 0 0 0 1.758 1.524 16.174 16.174 0 0 0 2.579 1.465 38.459 38.459 0 0 0 5.92 2.286 24.957 24.957 0 0 0 6.154 1 27.687 27.687 0 0 0 4.924-.175 9.25 9.25 0 0 0 .41-1.173c.176-.058.469-.117.7-.176-.528-4.4-4.4-4.747-6.213-5.509-.938-.41-4.689-3.634-6.506-5.158a29.553 29.553 0 0 0 .527-3.282 2.012 2.012 0 0 0-.176-1.349.5.5 0 0 0-.351-.175 1.609 1.609 0 0 0-1.055.117c-.528.176-1.056.41-1.583.586a3.011 3.011 0 0 0-1.407.879 2.474 2.474 0 0 0-.586 2.052c-.879-1.231-1.758-2.521-2.637-3.752a5.875 5.875 0 0 0-.528 2.052c-.059.762.176 1.641.645 1.758a9.016 9.016 0 0 1-3.341 3.576c-.117.058-.235.117-.235.293v.293a6.442 6.442 0 0 0 .825 2.457z" fill="#9778ff"></path><path d="M83.559 181.771a28.3 28.3 0 0 0 4.279 1.055 34.711 34.711 0 0 0 4.279 0 4.209 4.209 0 0 0 1.7-.586c.118-.351.293-.762.411-1.113 0 0-2.872 1.231-13.364-.762a19.769 19.769 0 0 0 2.695 1.406z" fill="#ffffff"></path><path d="M84.438 181.654c-1.406-.469-3.458-1.465-4.865-1.934a29.247 29.247 0 0 1-3.751-1.465 13.9 13.9 0 0 1-3.458-2.462v.058a5.333 5.333 0 0 1-1.993 1.524 22.117 22.117 0 0 0 .7 4.865 15.827 15.827 0 0 0 4.161 1.407 5.507 5.507 0 0 0 3.868-1.055 1.877 1.877 0 0 1 2.111.176 9.426 9.426 0 0 1 1.817 1.641c2.813 2.989 6.916.821 10.14-.528a6.057 6.057 0 0 0 .7-1.524 8.606 8.606 0 0 1-1.114.176 20.928 20.928 0 0 1-4.278.176 22.718 22.718 0 0 1-4.038-1.055zm-2.989-6.854-.41-.586a10.056 10.056 0 0 0 3.048-3.048l.586.411a10.551 10.551 0 0 1-3.224 3.223zm2.989 1.345-.586-.469a19.814 19.814 0 0 0 2.169-3.4l.645.352a17 17 0 0 1-2.228 3.517zm-5.451-3.045-.293-.645a8.16 8.16 0 0 0 3.576-2.638l.586.411a9.432 9.432 0 0 1-3.869 2.872zm25.38-160.368a9.45 9.45 0 0 0-2.99-3.283c-.527-.351-2.754-1.055-3.4-.469-3.869 3.634-5.041 9.5-7.854 14.009-2.755 4.513-6.33 8.557-8.147 13.539a12.881 12.881 0 0 0-.938 4.924 8 8 0 0 0 2.344 4.63c-2.989-4.923.938-11.195 4.1-15.825 1.29-1.876 2.7-3.458 4.044-5.275 3.517-4.631 5.51-9.554 8.91-14.829a20.654 20.654 0 0 1 3.931 2.579z"></path></g></svg>